<svg width="24" height="25" viewBox="0 0 24 25" fill="none" xmlns="http://www.w3.org/2000/svg">
<g clip-path="url(#clip0_642_1320)">
<path d="M23.2268 3.09017C23.1314 3.01737 23.0223 2.96566 22.9065 2.93834C22.7908 2.91103 22.6708 2.90871 22.5545 2.93154L22.475 2.94162C21.0702 3.18666 19.6703 3.43744 18.2663 3.68769C18.0263 3.70464 17.8029 3.81669 17.6434 4.00004C17.5868 4.07604 17.5447 4.16232 17.5193 4.2544C17.4701 4.41807 17.4769 4.59435 17.5386 4.75423C17.6002 4.91411 17.7131 5.04805 17.8586 5.13401L18.2588 5.45655C18.5346 5.68033 18.8165 5.90333 19.0969 6.12229L11.6661 15.9544L7.32955 12.5107C7.20115 12.4083 7.05443 12.3328 6.89781 12.2884C6.74118 12.2441 6.57772 12.2317 6.41682 12.2521C6.25591 12.2726 6.10071 12.3253 5.96012 12.4074C5.81954 12.4894 5.69633 12.5992 5.59756 12.7304L-0.25297 21.5C-0.352184 21.6308 -0.425077 21.7806 -0.467468 21.9406C-0.509858 22.1007 -0.520914 22.2679 -0.5 22.4328C-0.479086 22.5976 -0.426614 22.7568 -0.345593 22.9012C-0.264572 23.0457 -0.156596 23.1724 -0.027857 23.2743L0.231171 23.4801C0.359567 23.5825 0.506285 23.658 0.662911 23.7023C0.819538 23.7467 0.982992 23.759 1.1439 23.7386C1.30481 23.7182 1.46001 23.6655 1.60059 23.5834C1.74118 23.5013 1.86439 23.3915 1.96316 23.2604L6.86626 15.7457L11.1961 19.1851C11.3244 19.2874 11.4712 19.363 11.6278 19.4073C11.7844 19.4517 11.9479 19.464 12.1088 19.4436C12.2697 19.4232 12.4249 19.3704 12.5655 19.2883C12.7061 19.2063 12.8293 19.0965 12.928 18.9653L21.3107 7.87235L22.5418 8.84562C22.6243 8.92696 22.7221 8.99018 22.8292 9.03133C22.9363 9.07247 23.0503 9.09068 23.1643 9.0848C23.2864 9.06776 23.4021 9.01915 23.5004 8.94353C23.5714 8.89136 23.6349 8.82941 23.6893 8.75943C23.839 8.54104 23.9008 8.27165 23.8619 8.00682C23.7825 7.06242 23.7081 6.11737 23.6338 5.17232L23.5198 3.75187C23.5193 3.62693 23.4929 3.50336 23.4424 3.3893C23.3919 3.27525 23.3184 3.1733 23.2268 3.09017Z" fill="url(#paint0_linear_642_1320)" stroke="url(#paint1_linear_642_1320)"/>
</g>
<defs>
<linearGradient id="paint0_linear_642_1320" x1="-0.310881" y1="23.9232" x2="24.8921" y2="20.7257" gradientUnits="userSpaceOnUse">
<stop stop-color="#009694"/>
<stop offset="1" stop-color="#65F53D"/>
</linearGradient>
<linearGradient id="paint1_linear_642_1320" x1="-0.310881" y1="23.9232" x2="24.8921" y2="20.7257" gradientUnits="userSpaceOnUse">
<stop stop-color="#009694"/>
<stop offset="1" stop-color="#65F53D"/>
</linearGradient>
<clipPath id="clip0_642_1320">
<rect width="24" height="25" fill="white"/>
</clipPath>
</defs>
</svg>
