<svg width="20" height="20" viewBox="0 0 20 20" fill="none" xmlns="http://www.w3.org/2000/svg">
<g clip-path="url(#clip0_563_1571)">
<path d="M6.00899 1.07039C4.53484 1.66805 3.23165 2.62151 2.21582 3.84561C1.19999 5.06971 0.503135 6.52635 0.187497 8.08542C-0.128141 9.64449 -0.0527368 11.2575 0.406974 12.7803C0.866686 14.3031 1.69639 15.6884 2.82199 16.8124C3.71615 17.708 4.77814 18.4186 5.94719 18.9034C7.11624 19.3882 8.36941 19.6378 9.63499 19.6378C10.9006 19.6378 12.1538 19.3882 13.3228 18.9034C14.4919 18.4186 15.5538 17.708 16.448 16.8124C17.3436 15.9182 18.0542 14.8562 18.539 13.6872C19.0238 12.5181 19.2734 11.265 19.2734 9.99939C19.2734 8.7338 19.0238 7.48063 18.539 6.31158C18.0542 5.14253 17.3436 4.08054 16.448 3.18639C15.1078 1.84794 13.4033 0.933577 11.547 0.557296C9.69062 0.181015 7.7646 0.35946 6.00899 1.07039ZM2.40899 14.0564C1.94513 13.7694 1.51856 13.4261 1.13899 13.0344C0.56246 11.4092 0.460486 9.65342 0.844994 7.97239C1.02513 7.61631 1.23136 7.27404 1.46199 6.94839C1.53399 6.84839 1.59999 6.74239 1.67699 6.64839L3.85099 7.93139V7.98639C3.84563 9.15505 3.9626 10.3211 4.19999 11.4654C4.19999 11.4704 4.19999 11.4734 4.19999 11.4784L2.51699 14.1174C2.47999 14.0984 2.44399 14.0784 2.40899 14.0564ZM8.87399 18.5264C9.24684 18.7171 9.63362 18.8792 10.031 19.0114C8.32211 19.0874 6.62674 18.6769 5.14199 17.8274L8.78699 18.4764C8.81499 18.4934 8.84399 18.5104 8.87399 18.5264ZM8.85999 17.8654L4.55999 17.0984C4.0552 16.4899 3.60512 15.838 3.21499 15.1504C3.11499 14.9744 3.00499 14.8044 2.92199 14.6204L4.59999 11.9814L4.72599 12.0134C5.78126 12.2891 6.85176 12.5028 7.93199 12.6534C7.99499 12.6624 8.04799 12.6704 8.09299 12.6744L10.117 16.1654C9.76633 16.6581 9.41066 17.1471 9.04999 17.6324C8.98999 17.7134 8.92599 17.7914 8.85999 17.8654ZM16.016 16.3784C15.6792 16.7158 15.3161 17.0258 14.93 17.3054C14.867 16.8028 14.7579 16.307 14.604 15.8244L16.759 11.8054C17.3553 11.5422 17.9247 11.2217 18.459 10.8484C18.5247 10.8028 18.5827 10.7471 18.631 10.6834C18.4721 12.8349 17.5438 14.8572 16.016 16.3804V16.3784ZM15.916 11.1654C15.996 11.3184 16.075 11.4724 16.155 11.6294L14.074 15.5114L14.039 15.5184C12.9178 15.7293 11.7799 15.8388 10.639 15.8454L8.56299 12.2564C8.88633 11.6564 9.20666 11.0544 9.52399 10.4504C9.73999 10.0414 9.95199 9.62939 10.163 9.21839L14.463 8.77739C14.9947 9.54437 15.4812 10.3417 15.92 11.1654H15.916ZM15.044 6.56539C14.844 7.10439 14.622 7.63739 14.405 8.17139L10.218 8.60139C10.168 8.53539 10.118 8.47039 10.061 8.40839C9.56899 7.84639 9.07399 7.28739 8.57599 6.73139L8.58999 6.71639L7.98999 6.11639L9.15299 2.60539C9.23397 2.58306 9.31655 2.56702 9.39999 2.55739C10.034 2.49339 10.668 2.42039 11.3 2.38339C11.6915 2.35647 12.0843 2.35446 12.476 2.37739L15.36 5.62839C15.26 5.94139 15.164 6.25639 15.048 6.56539H15.044ZM16.012 3.62139C16.7852 4.39332 17.4111 5.29983 17.859 6.29639C17.3215 5.92574 16.7459 5.61363 16.142 5.36539C16.048 5.32639 15.951 5.29239 15.853 5.25839L13.014 2.06539C13.033 1.92746 13.0444 1.78858 13.048 1.64939C14.1589 2.10129 15.1681 2.77113 16.016 3.61939L16.012 3.62139ZM6.74199 1.48139C6.75299 1.48939 6.75899 1.49639 6.76499 1.49839C7.40664 1.72718 8.01265 2.04567 8.56499 2.44439L7.47499 5.72139L7.45899 5.72739C7.23599 5.81939 7.00899 5.90239 6.78999 6.00239C5.88284 6.40442 5.00822 6.87616 4.17399 7.41339L2.02499 6.14139C2.02706 6.07313 2.03988 6.00564 2.06299 5.94139C2.20699 5.55739 2.34899 5.17039 2.51199 4.79339C2.63807 4.50414 2.77995 4.22205 2.93699 3.94839C3.03699 3.83539 3.14499 3.72339 3.25399 3.61439C4.23994 2.62869 5.44208 1.88638 6.76499 1.44639L6.74199 1.48139Z" fill="#105526"/>
</g>
<defs>
<clipPath id="clip0_563_1571">
<rect width="19.27" height="19.269" fill="white" transform="translate(0 0.365479)"/>
</clipPath>
</defs>
</svg>
