<svg width="24" height="23" viewBox="0 0 24 23" fill="none" xmlns="http://www.w3.org/2000/svg">
<g clip-path="url(#clip0_642_1316)">
<path d="M0.912722 20.7097C0.670336 20.7097 0.437883 20.8062 0.266491 20.9778C0.0950966 21.1494 -0.00119019 21.3821 -0.00119019 21.6248C-0.00119019 21.8676 0.0950966 22.1003 0.266491 22.2719C0.437883 22.4436 0.670336 22.54 0.912722 22.54H23.0861C23.3285 22.54 23.5609 22.4436 23.7323 22.2719C23.9037 22.1003 24 21.8676 24 21.6248C24 21.3821 23.9037 21.1494 23.7323 20.9778C23.5609 20.8062 23.3285 20.7097 23.0861 20.7097H22.1111V1.37508C22.1111 1.13238 22.0149 0.899606 21.8435 0.72799C21.6721 0.556374 21.4396 0.459961 21.1972 0.459961H17.5403C17.298 0.459961 17.0655 0.556374 16.8941 0.72799C16.7227 0.899606 16.6264 1.13238 16.6264 1.37508V20.7097H14.7986V6.86453C14.7986 6.62182 14.7023 6.38907 14.5309 6.21746C14.3595 6.04584 14.127 5.94941 13.8847 5.94941H10.2302C9.98779 5.94941 9.75534 6.04584 9.58394 6.21746C9.41255 6.38907 9.31626 6.62182 9.31626 6.86453V20.7097H7.492V14.183C7.492 14.0628 7.46836 13.9438 7.42243 13.8328C7.3765 13.7218 7.30918 13.6209 7.22432 13.5359C7.13945 13.4509 7.0387 13.3835 6.92781 13.3376C6.81693 13.2916 6.6981 13.2679 6.57808 13.2679H2.92359C2.6812 13.2679 2.44875 13.3643 2.27736 13.5359C2.10596 13.7075 2.00968 13.9403 2.00968 14.183V20.7097" fill="url(#paint0_linear_642_1316)"/>
</g>
<defs>
<linearGradient id="paint0_linear_642_1316" x1="24" y1="22.54" x2="0.715263" y2="22.54" gradientUnits="userSpaceOnUse">
<stop stop-color="#009694"/>
<stop offset="1" stop-color="#65F53D"/>
</linearGradient>
<clipPath id="clip0_642_1316">
<rect width="24" height="22.08" fill="white" transform="matrix(-1 0 0 1 24 0.459961)"/>
</clipPath>
</defs>
</svg>
